PathFileType	4	(X/Y/Z)	Patient4_TMGait_0pt2_03_left_20.trc.trc
DataRate	CameraRate	NumFrames	NumMarkers	Units	OrigDataRate	OrigDataStartFrame	OrigNumFrames
48.275862068966	48.275862068966	4	33	mm	48.275862068966	53	       141
Frame#	Time	Sacral			L.Shoulder			Chest			R.Shoulder			Neck			R.ASIS			L.ASIS			R.Thigh.Superior			R.Thigh.Lateral			R.Thigh.Inferior			R.Patella			L.Thigh.Superior			L.Thigh.Lateral			L.Thigh.Inferior			L.Patella			L.Shank.Superior			L.Shank.Lateral			L.Shank.Inferior			R.Shank.Superior			R.Shank.Lateral			R.Shank.Inferior			R.Heel			R.Midfoot.Superior			R.Midfoot.Lateral			R.Toe			L.Heel			L.Midfoot.Lateral			L.Midfoot.Superior			L.Toe			L.Elbow			L.Wrist			R.Elbow			R.Wrist			
		X1	Y1	Z1	X2	Y2	Z2	X3	Y3	Z3	X4	Y4	Z4	X5	Y5	Z5	X6	Y6	Z6	X7	Y7	Z7	X8	Y8	Z8	X9	Y9	Z9	X10	Y10	Z10	X11	Y11	Z11	X12	Y12	Z12	X13	Y13	Z13	X14	Y14	Z14	X15	Y15	Z15	X16	Y16	Z16	X17	Y17	Z17	X18	Y18	Z18	X19	Y19	Z19	X20	Y20	Z20	X21	Y21	Z21	X22	Y22	Z22	X23	Y23	Z23	X24	Y24	Z24	X25	Y25	Z25	X26	Y26	Z26	X27	Y27	Z27	X28	Y28	Z28	X29	Y29	Z29	X30	Y30	Z30	X31	Y31	Z31	X32	Y32	Z32	X33	Y33	Z33	

53	42.957142857143	849.336328578608	997.791527557267	445.476523670603	1050.394534570428	1419.340016023707	269.222536608149	1150.850440255813	1338.504368365237	426.083470678782	1079.617826048766	1415.537723353853	603.057734546647	1053.104800313558	1479.082664658411	425.008119000854	1078.354582082939	921.608652108301	558.034157001609	1061.500943288523	947.976758530184	286.319648986113	1115.642701067876	718.568437070206	530.626265626867	1039.332968032363	612.470035512238	601.244797975210	1112.422364398756	551.519039484526	521.020133752318	1102.562186855167	443.781416252299	543.830631720725	1127.614971521010	748.814147460373	332.094594279558	1053.062891007326	607.843590002789	272.815883495192	1149.435553363776	553.915018838109	350.235162813274	1156.744038847886	478.313471016536	360.383565680053	1117.885639481879	403.567214935478	352.486404535433	1019.678821335733	300.709558884744	294.337519176797	1044.695680950383	185.920778405156	369.118287610763	1022.748524928053	381.056823660126	558.275811628066	905.787393893120	347.918621322866	629.540245255084	881.742996083831	239.755390637434	582.522572142336	674.311613577876	182.313099407808	574.655184630151	843.364006567461	122.468148098093	601.051213211228	738.266652142313	122.041900608050	641.523463224970	908.834955861311	31.482323268308	617.171267388085	894.822466040504	40.858660160421	397.760715616623	973.873807931450	37.478849193324	322.956717100810	1056.959466368407	96.330923915249	356.361040069610	1185.557182303674	40.096286183498	333.607571577238	1036.406030302660	1071.711054815558	133.811894243605	1169.255450794856	848.480038316567	171.976510078581	1078.536881795394	1060.153369386040	714.049824663397	1178.224883181425	818.247276624358	712.918626567559	
54	42.977857142857	849.273531606081	995.093351680061	442.411163705329	1052.902109410008	1417.077769015087	267.837278681008	1151.637570687058	1336.091013491715	425.745905160552	1078.245238756893	1412.713957837947	602.202643314308	1054.128551993295	1476.778328490580	423.715753447787	1078.120535363930	919.561176202337	555.960274022374	1062.628037418343	945.949089112802	284.239822133828	1122.697032033900	720.124378015433	526.740003523878	1051.395758457234	611.446607865897	597.700017441830	1126.518265856249	552.928271624560	516.786323753388	1119.202513274197	443.454439034286	540.154187965476	1129.354365396948	746.859541128624	329.889233444406	1054.849139565562	605.743402495159	271.496855273052	1151.008076432854	552.142892293108	349.479816715424	1158.267350223595	476.395354549897	360.082602772380	1118.409128843664	401.391941365449	352.281839466439	1019.267744581034	299.596449102313	293.788495670605	1042.121167273066	184.718750912420	368.993308357788	1037.289923945684	381.362901877476	554.735979678710	918.192471140305	353.108785365768	625.007890009862	891.119442035715	244.990601457339	579.319405322888	682.335970470497	197.128003906191	569.316482413163	847.984748223901	127.944142100028	598.770993360960	742.076549364482	133.763186540559	637.573350894385	907.475405488469	30.802466122425	616.902549997352	890.668911894624	40.730812901754	397.526859244201	969.752518402972	37.304479100229	322.723069985219	1052.802790670060	96.164603975851	356.314325665077	1181.454534735392	40.045253610967	333.558440133749	1051.196242135280	1070.135908555788	130.322182636361	1194.368090289232	854.145261167988	172.494790670507	1058.297425753844	1058.476978897263	714.245248715165	1135.871838462997	808.093986306322	716.494495405312	
55	42.998571428571	849.120808426294	992.871332365345	439.764599279098	1055.458116627183	1415.225251430358	266.792558466036	1152.315422071389	1334.148445616981	425.848246588889	1076.566286087820	1410.492692109754	601.575018565566	1055.092946490306	1474.924726305704	422.697551569072	1077.703937253722	918.011136136358	554.371382318836	1063.696676582765	944.345798037374	282.569390464958	1129.371624544920	722.642515648277	523.188840332767	1063.232233694103	611.463518343742	594.525740720747	1140.236531563628	555.548202565549	512.863179942012	1135.690106739795	444.469282961831	536.617989483477	1130.691847814347	745.040930703314	328.018458995185	1055.958274585730	603.960277612711	270.397211876023	1151.788517840985	550.496405274390	348.846749526957	1158.899314702792	474.716015989309	359.895100118360	1118.190191840537	399.510866439655	352.155535777998	1018.325308077270	298.614503564220	293.292060677852	1039.293071762553	183.681416158876	368.889278978823	1051.977485064825	382.672992758434	551.297835272735	930.878746590184	358.664659562579	620.384884336506	901.400727129362	250.498618184138	575.924673958170	691.674216646078	210.809193853242	563.341610432802	854.230957704304	133.788588265816	596.217813887539	747.538450628132	145.031606049567	633.180743744244	908.463683150560	30.573950670539	616.705209811260	886.501301327501	40.616525076473	397.303584483370	965.620784604199	37.153296427192	322.489655480557	1048.641846826773	96.016114266633	356.256153092333	1177.338631412948	40.001338312328	333.506783771699	1065.534685614687	1069.462322982355	127.316349168614	1219.208939984715	861.659377123523	173.360267719832	1037.394978794835	1058.450262066664	714.041373648265	1093.914868734423	802.229964329142	718.637410479229	
56	43.019285714286	848.879714943211	991.329584110049	437.496610430119	1058.155265248801	1413.927059191862	266.096936889120	1152.933769344322	1332.818315251286	426.409790373703	1074.643351740456	1409.062048158041	601.169250196201	1056.063232388531	1473.669343805844	421.954269049358	1077.055314313445	917.115346291313	553.330631881211	1064.735915388435	943.316849994526	281.330428323240	1135.412489760350	726.153004096181	520.125612617897	1074.446564845152	612.624297210804	591.853111827411	1153.140217934133	559.399198892445	509.422106716787	1151.562690123863	446.908470293652	533.422129250368	1131.518186104632	743.439142806487	326.562427693850	1056.247160576164	602.621281290626	269.517290155188	1151.584357425207	549.050670755789	348.355769604645	1158.421297194528	473.358352821967	359.817096400465	1117.047752382545	398.026698998982	352.094565828216	1016.714815949013	297.816855531596	292.842051564864	1036.145784248864	182.865598231062	368.800302210776	1066.461928095195	385.007806924405	548.174891154601	943.569830103988	364.298914310798	615.949775624024	912.532251453061	255.941724129049	572.592436059439	702.252555860942	222.294938183381	557.183314343768	862.381212497625	139.620553325656	593.633916369910	754.922693193084	155.000158209102	628.720535613446	912.569415345119	30.950185081780	616.705126854138	882.312195383303	40.516468008342	397.093058764137	961.473061572156	37.025991151665	322.262168832346	1044.470752067379	95.894120398697	356.180640399460	1173.204231732181	39.968175389500	333.455349254783	1079.324384308893	1069.792834931224	124.787002400229	1243.536085545068	871.149945183873	174.547476710133	1016.200502823651	1060.206681004797	713.347935848340	1053.188383766894	800.369997830048	719.502900257267	
